<?xml version="1.0" encoding="iso-8859-1"?>
<!-- Generator: Adobe Illustrator 19.0.0, SVG Export Plug-In . SVG Version: 6.00 Build 0)  -->
<svg version="1.1" id="Capa_1" xmlns="http://www.w3.org/2000/svg" xmlns:xlink="http://www.w3.org/1999/xlink" x="0px" y="0px"
	 viewBox="0 0 496 496" style="enable-background:new 0 0 496 496;" xml:space="preserve">
<g>
	<rect x="304" y="168" style="fill:#F0BC5E;" width="64" height="96"/>
	<rect x="192" y="168" style="fill:#F0BC5E;" width="64" height="96"/>
</g>
<rect x="272" y="136" width="16" height="160"/>
<rect x="400" y="155.336" width="16" height="20.664"/>
<rect x="304" y="160" width="64" height="16"/>
<rect x="304" y="192" width="64" height="16"/>
<rect x="304" y="224" width="64" height="16"/>
<rect x="304" y="256" width="64" height="16"/>
<rect x="192" y="160" width="64" height="16"/>
<rect x="192" y="192" width="64" height="16"/>
<rect x="192" y="224" width="64" height="16"/>
<rect x="192" y="256" width="64" height="16"/>
<rect x="104" y="448" width="80" height="16"/>
<path d="M432,152v192H304v8c0,13.232-10.768,24-24,24s-24-10.768-24-24v-8H128V152h16v176h272V192h-16v120H160V120h196.8v-16H288V40
	c0-22.056-17.944-40-40-40H40C17.944,0,0,17.944,0,40v416c0,22.056,17.944,40,40,40h208c22.056,0,40-17.944,40-40v-64.88
	c15.64-3.2,28.008-15.48,31.192-31.12H448V152H432z M40,16h208c13.232,0,24,10.768,24,24v16H16V40C16,26.768,26.768,16,40,16z
	 M272,456c0,13.232-10.768,24-24,24H40c-13.232,0-24-10.768-24-24v-24h256V456z M272,416H16V72h256v32H144v32h-32v224h128.808
	c3.192,15.64,15.56,27.928,31.192,31.12V416z"/>
<rect x="32" y="120" width="16" height="192"/>
<rect x="32" y="88" width="16" height="16"/>
<path style="fill:#F0BC5E;" d="M416,160c-44.112,0-80-35.888-80-80s35.888-80,80-80s80,35.888,80,80S460.112,160,416,160z"/>
<path d="M384,124.944V35.056L473.888,80L384,124.944z M400,60.944v38.112L438.112,80L400,60.944z"/>
<g>
</g>
<g>
</g>
<g>
</g>
<g>
</g>
<g>
</g>
<g>
</g>
<g>
</g>
<g>
</g>
<g>
</g>
<g>
</g>
<g>
</g>
<g>
</g>
<g>
</g>
<g>
</g>
<g>
</g>
</svg>
