<?xml version="1.0" encoding="iso-8859-1"?>
<!-- Generator: Adobe Illustrator 19.0.0, SVG Export Plug-In . SVG Version: 6.00 Build 0)  -->
<svg version="1.1" id="Capa_1" xmlns="http://www.w3.org/2000/svg" xmlns:xlink="http://www.w3.org/1999/xlink" x="0px" y="0px"
	 viewBox="0 0 498.88 498.88" style="enable-background:new 0 0 498.88 498.88;" xml:space="preserve">
<path style="fill:#F0BC5E;" d="M389.936,51.504C373.384,20.56,341.592,1.44,306.336,1.44H296c-79.4,0-144,64.6-144,144v72h8
	c0-17.672,14.328-32,32-32v-48c31.792,10.6,65.08,16,98.592,16h10.816c33.512,0,66.8-5.4,98.592-16v48c17.672,0,32,14.328,32,32h8
	v-82.336C440,99.848,420.88,68.056,389.936,51.504z"/>
<path d="M93.12,497.44h405.76l-26.376-84.392c-0.384-1.224-0.84-2.408-1.272-3.608H496v-352h-96v0.352
	c6.408,4.528,12.08,9.824,17.088,15.648H480v320h-16v0.192c-14.768-25.728-40.808-44.096-70.688-48.696L352,338.576v-8.288
	c26.92-15.624,46.784-42.072,53.488-73.4C424.928,254.176,440,237.616,440,217.44c0-19.312-13.768-35.472-32-39.192v-51.912
	l-10.528,3.512c-31.04,10.352-63.36,15.592-96.064,15.592h-10.816c-32.704,0-65.024-5.24-96.064-15.584L184,126.336v51.912
	c-18.232,3.72-32,19.872-32,39.192c0,20.176,15.072,36.736,34.512,39.448c6.704,31.328,26.568,57.776,53.488,73.4v8.288
	l-41.312,6.352c-29.88,4.6-55.92,22.968-70.688,48.696v-0.184H16v-328h160.352c3.8-5.664,8.088-10.944,12.624-16H0v360h120.768
	c-0.432,1.2-0.888,2.384-1.272,3.608L93.12,497.44z M245.208,353.96l39.088,39.088l-46.768,40.92l-12.808-76.856L245.208,353.96z
	 M296,404.072l31.56,27.616l-16.176,24.264l6.376,25.488h-43.52l6.376-25.496L264.44,431.68L296,404.072z M346.792,353.96
	l20.488,3.152l-12.808,76.856l-46.768-40.92L346.792,353.96z M457.24,417.816l19.88,63.624h-62.056l-7.128-56.992l-15.872,1.984
	l6.872,55.008H334.24l-5.624-22.504l11.088-16.624l25.832,22.6l17.56-105.36l7.784,1.2
	C421.84,365.512,447.888,387.92,457.24,417.816z M424,217.44c0,10.536-6.872,19.416-16.336,22.632
	c0.128-2.208,0.336-4.392,0.336-6.632v-38.528C417.288,198.224,424,207.024,424,217.44z M290.592,161.44h10.816
	c30.744,0,61.168-4.408,90.592-13.104v37.104h-10.224c-2.776-4.76-7.88-8-13.776-8h-48c-8.824,0-16,7.176-16,16h-16
	c0-8.824-7.176-16-16-16h-48c-5.896,0-11,3.24-13.776,8H200v-37.104C229.432,157.032,259.848,161.44,290.592,161.44z M368,193.44v16
	c0,8.824-7.176,16-16,16h-16c-8.824,0-16-7.176-16-16v-16H368z M272,193.44v16c0,8.824-7.176,16-16,16h-16c-8.824,0-16-7.176-16-16
	v-16H272z M168,217.44c0-10.416,6.712-19.216,16-22.528v38.528c0,2.24,0.208,4.424,0.336,6.632
	C174.872,236.856,168,227.976,168,217.44z M200,233.44v-32h8v8c0,17.648,14.352,32,32,32h16c17.648,0,32-14.352,32-32h16
	c0,17.648,14.352,32,32,32h16c17.648,0,32-14.352,32-32v-8h8v32c0,52.936-43.064,96-96,96S200,286.376,200,233.44z M296,345.44
	c14.104,0,27.56-2.728,40-7.512v4.2l-40,40l-40-40v-4.2C268.44,342.712,281.896,345.44,296,345.44z M201.128,360.744l7.784-1.2
	l17.56,105.36l25.832-22.6l11.088,16.624l-5.632,22.512h-64.696l6.872-55.008l-15.872-1.984l-7.128,56.992H114.88l19.872-63.624
	C144.112,387.92,170.16,365.512,201.128,360.744z"/>
<polygon points="88,193.44 88,129.44 64,129.44 64,145.44 72,145.44 72,193.44 "/>
<rect x="32" y="217.44" width="96" height="16"/>
<path d="M104,274.816v-1.376c0-13.232-10.768-24-24-24s-24,10.768-24,24h16c0-4.416,3.584-8,8-8s8,3.584,8,8v1.376
	c0,2.104-0.848,4.168-2.344,5.656L56,310.128v19.312h48v-16H75.312l21.656-21.656C101.504,287.256,104,281.224,104,274.816z"/>
<g>
</g>
<g>
</g>
<g>
</g>
<g>
</g>
<g>
</g>
<g>
</g>
<g>
</g>
<g>
</g>
<g>
</g>
<g>
</g>
<g>
</g>
<g>
</g>
<g>
</g>
<g>
</g>
<g>
</g>
</svg>
